<svg width="49" height="48" viewBox="0 0 49 48" fill="none" xmlns="http://www.w3.org/2000/svg">
<g clip-path="url(#clip0_1324_12658)">
<path d="M13.3 19.2H16.5V16H13.3V19.2ZM32.5 19.2H35.7V16H32.5V19.2ZM32.82 27.84C31.8513 29.1316 30.5951 30.18 29.151 30.902C27.7069 31.6241 26.1145 32 24.5 32C22.8855 32 21.2931 31.6241 19.849 30.902C18.4049 30.18 17.1487 29.1316 16.18 27.84L13.62 29.76C19.06 37.0144 29.94 37.0144 35.38 29.76L32.82 27.84ZM3.7 16V8H0.5V16H3.7ZM8.5 3.2H16.5V0H8.5V3.2ZM3.7 8C3.7 6.72696 4.20571 5.50606 5.10589 4.60589C6.00606 3.70571 7.22696 3.2 8.5 3.2V0C6.37827 0 4.34344 0.842855 2.84315 2.34315C1.34285 3.84344 0.5 5.87827 0.5 8H3.7ZM0.5 32V40H3.7V32H0.5ZM8.5 48H16.5V44.8H8.5V48ZM0.5 40C0.5 42.1217 1.34285 44.1566 2.84315 45.6569C4.34344 47.1571 6.37827 48 8.5 48V44.8C7.22696 44.8 6.00606 44.2943 5.10589 43.3941C4.20571 42.4939 3.7 41.273 3.7 40H0.5ZM32.5 3.2H40.5V0H32.5V3.2ZM45.3 8V16H48.5V8H45.3ZM40.5 3.2C41.773 3.2 42.9939 3.70571 43.8941 4.60589C44.7943 5.50606 45.3 6.72696 45.3 8H48.5C48.5 5.87827 47.6571 3.84344 46.1569 2.34315C44.6566 0.842855 42.6217 0 40.5 0V3.2ZM32.5 48H40.5V44.8H32.5V48ZM48.5 40V32H45.3V40H48.5ZM40.5 48C42.6217 48 44.6566 47.1571 46.1569 45.6569C47.6571 44.1566 48.5 42.1217 48.5 40H45.3C45.3 41.273 44.7943 42.4939 43.8941 43.3941C42.9939 44.2943 41.773 44.8 40.5 44.8V48Z" fill="#121212"/>
</g>
<defs>
<clipPath id="clip0_1324_12658">
<rect width="48" height="48" fill="white" transform="translate(0.5)"/>
</clipPath>
</defs>
</svg>
