<svg width="48" height="49" viewBox="0 0 48 49" fill="none" xmlns="http://www.w3.org/2000/svg">
<rect y="0.5" width="48" height="48" rx="16" fill="#B9E8D0"/>
<path fill-rule="evenodd" clip-rule="evenodd" d="M20.1118 15.475C19.0597 14.5083 17.4426 14.5083 16.3905 15.475C16.3474 15.5146 16.3014 15.5606 16.2417 15.6204L15.3442 16.5179C14.4411 17.421 14.062 18.7229 14.339 19.9697C15.911 27.0436 21.4355 32.5681 28.5094 34.1401C29.7562 34.4171 31.0581 34.038 31.9612 33.1349L32.8586 32.2375C32.9184 32.1777 32.9644 32.1317 33.004 32.0886C33.9708 31.0365 33.9708 29.4193 33.004 28.3673C32.9644 28.3241 32.9184 28.2781 32.8586 28.2184L31.3894 26.7491C30.3693 25.729 28.8287 25.4372 27.5063 26.0137C26.7492 26.3437 25.8672 26.1767 25.2832 25.5927L22.8864 23.1959C22.3024 22.6119 22.1354 21.7299 22.4654 20.9728C23.0418 19.6504 22.7501 18.1098 21.73 17.0897L20.2607 15.6204C20.2009 15.5607 20.1549 15.5146 20.1118 15.475ZM17.4054 16.5796C17.8836 16.1401 18.6187 16.1401 19.0969 16.5796C19.1134 16.5947 19.1351 16.6161 19.2111 16.6922L20.6693 18.1504C21.2533 18.7344 21.4204 19.6163 21.0903 20.3735C20.5139 21.6959 20.8056 23.2364 21.8257 24.2565L24.2225 26.6534C25.2426 27.6735 26.7832 27.9652 28.1056 27.3887C28.8627 27.0587 29.7447 27.2258 30.3287 27.8098L31.7869 29.268C31.8629 29.344 31.8843 29.3657 31.8995 29.3822C32.3389 29.8604 32.3389 30.5955 31.8995 31.0737C31.8843 31.0902 31.8629 31.1118 31.7869 31.1879L30.9005 32.0742C30.3601 32.6147 29.5809 32.8416 28.8348 32.6758C22.3295 31.2302 17.2489 26.1496 15.8033 19.6443C15.6375 18.8982 15.8644 18.119 16.4049 17.5785L17.2912 16.6922C17.3673 16.6161 17.3889 16.5947 17.4054 16.5796Z" fill="#263238"/>
</svg>
