<svg width="49" height="48" viewBox="0 0 49 48" fill="none" xmlns="http://www.w3.org/2000/svg">
<path d="M5 19.1245H9.875V31.8745H6.5C6.20163 31.8745 5.91548 31.993 5.7045 32.204C5.49353 32.415 5.375 32.7011 5.375 32.9995C5.375 33.2979 5.49353 33.584 5.7045 33.795C5.91548 34.006 6.20163 34.1245 6.5 34.1245H42.5C42.7984 34.1245 43.0845 34.006 43.2955 33.795C43.5065 33.584 43.625 33.2979 43.625 32.9995C43.625 32.7011 43.5065 32.415 43.2955 32.204C43.0845 31.993 42.7984 31.8745 42.5 31.8745H39.125V19.1245H44C44.2449 19.1243 44.483 19.0442 44.6782 18.8964C44.8735 18.7486 45.0151 18.5411 45.0817 18.3055C45.1483 18.0698 45.1362 17.8189 45.0473 17.5907C44.9583 17.3626 44.7973 17.1697 44.5887 17.0414L25.0887 5.04136C24.9116 4.93258 24.7078 4.875 24.5 4.875C24.2922 4.875 24.0884 4.93258 23.9113 5.04136L4.41125 17.0414C4.20269 17.1697 4.04171 17.3626 3.95273 17.5907C3.86376 17.8189 3.85165 18.0698 3.91825 18.3055C3.98485 18.5411 4.12652 18.7486 4.32176 18.8964C4.51699 19.0442 4.75512 19.1243 5 19.1245ZM12.125 19.1245H18.875V31.8745H12.125V19.1245ZM27.875 19.1245V31.8745H21.125V19.1245H27.875ZM36.875 31.8745H30.125V19.1245H36.875V31.8745ZM24.5 7.31198L40.025 16.8745H8.975L24.5 7.31198ZM46.625 38.9995C46.625 39.2979 46.5065 39.584 46.2955 39.795C46.0845 40.006 45.7984 40.1245 45.5 40.1245H3.5C3.20163 40.1245 2.91548 40.006 2.7045 39.795C2.49353 39.584 2.375 39.2979 2.375 38.9995C2.375 38.7011 2.49353 38.415 2.7045 38.204C2.91548 37.993 3.20163 37.8745 3.5 37.8745H45.5C45.7984 37.8745 46.0845 37.993 46.2955 38.204C46.5065 38.415 46.625 38.7011 46.625 38.9995Z" fill="#121212"/>
</svg>
