<svg width="48" height="49" viewBox="0 0 48 49" fill="none" xmlns="http://www.w3.org/2000/svg">
<rect y="0.5" width="48" height="48" rx="16" fill="#B9E8D0"/>
<path fill-rule="evenodd" clip-rule="evenodd" d="M24.2103 13.7539C24.0698 13.7487 23.9292 13.7487 23.7887 13.7539C22.8613 13.7879 22.0263 14.1032 21.1107 14.6282C20.2184 15.1397 19.1912 15.8861 17.8878 16.833L17.8169 16.8845C16.5135 17.8315 15.4863 18.5778 14.724 19.2683C13.9418 19.9769 13.3839 20.6737 13.0649 21.5452C13.0166 21.6772 12.9732 21.8109 12.9347 21.9461C12.6804 22.8386 12.7223 23.7303 12.9386 24.7633C13.1494 25.77 13.5418 26.9776 14.0396 28.5098L14.0667 28.5931C14.5645 30.1253 14.9569 31.3329 15.3781 32.2712C15.8103 33.2341 16.3005 33.9801 17.0308 34.5527C17.1414 34.6394 17.2552 34.7221 17.3719 34.8005C18.1066 35.2942 18.9238 35.5315 19.9093 35.6509C20.9577 35.7779 22.2684 35.7779 23.9493 35.7779H24.0497C25.7307 35.7779 27.0414 35.7779 28.0897 35.6509C29.0752 35.5315 29.8925 35.2942 30.6272 34.8005C30.7439 34.7221 30.8576 34.6394 30.9683 34.5527C31.6985 33.9801 32.1888 33.2341 32.6209 32.2712C33.0421 31.3329 33.4345 30.1253 33.9323 28.593L33.9594 28.5097C34.4572 26.9776 34.8496 25.7699 35.0604 24.7633C35.2767 23.7303 35.3186 22.8386 35.0644 21.9461C35.0259 21.8109 34.9824 21.6772 34.9341 21.5452C34.6152 20.6737 34.0572 19.9769 33.275 19.2683C32.5128 18.5778 31.4855 17.8315 30.1821 16.8845L30.1112 16.833C28.8079 15.8861 27.7806 15.1397 26.8884 14.6282C25.9728 14.1032 25.1377 13.7879 24.2103 13.7539ZM23.8437 15.2529C23.9475 15.249 24.0515 15.249 24.1553 15.2529C24.7508 15.2747 25.3438 15.4717 26.1423 15.9295C26.9561 16.396 27.9184 17.094 29.265 18.0723C30.6116 19.0507 31.5728 19.7503 32.268 20.38C32.9501 20.998 33.3207 21.5011 33.5255 22.0607C33.5612 22.1582 33.5933 22.2571 33.6218 22.357C33.785 22.9301 33.7809 23.555 33.5923 24.4558C33.4 25.374 33.0336 26.5049 32.5193 28.0879C32.0049 29.6709 31.6366 30.8012 31.2525 31.657C30.8756 32.4967 30.5116 33.0046 30.0427 33.3723C29.9609 33.4364 29.8768 33.4975 29.7906 33.5555C29.495 33.754 29.1635 33.9015 28.7495 34.0091V31.3197C28.7495 28.6963 26.6229 26.5697 23.9995 26.5697C21.3762 26.5697 19.2495 28.6963 19.2495 31.3197V34.0091C18.8356 33.9015 18.504 33.754 18.2084 33.5555C18.1222 33.4975 18.0381 33.4364 17.9564 33.3723C17.4875 33.0046 17.1235 32.4967 16.7466 31.657C16.3624 30.8012 15.9941 29.6709 15.4798 28.0879C14.9654 26.5049 14.599 25.374 14.4068 24.4558C14.2181 23.555 14.214 22.9301 14.3773 22.357C14.4057 22.2571 14.4379 22.1582 14.4736 22.0607C14.6783 21.5011 15.0489 20.998 15.7311 20.38C16.4263 19.7503 17.3874 19.0507 18.734 18.0723C20.0806 17.094 21.043 16.396 21.8567 15.9295C22.6552 15.4717 23.2483 15.2747 23.8437 15.2529ZM23.9995 28.0697C25.7944 28.0697 27.2495 29.5247 27.2495 31.3197V34.2217C26.4061 34.2771 25.3628 34.2779 23.9995 34.2779C22.6362 34.2779 21.5929 34.2771 20.7495 34.2218V31.3197C20.7495 29.5247 22.2046 28.0697 23.9995 28.0697Z" fill="#263238"/>
</svg>
