<svg width="48" height="48" viewBox="0 0 48 48" fill="none" xmlns="http://www.w3.org/2000/svg">
<rect width="48" height="48" rx="16" fill="#E9EBEB"/>
<path d="M20.1831 30H28.1831L27.7831 30.6857C25.9831 33.7714 22.3831 33.7714 20.5831 30.6857L20.1831 30Z" fill="#263238"/>
<path d="M28.1831 15.352C27.3084 14.5177 26.1224 14 24.8029 14H23.0999C20.1555 14 17.8774 16.5806 18.2426 19.5023L18.3219 20.1372C18.4681 21.3063 18.041 22.4741 17.1751 23.2731C15.9924 24.3645 15.6638 26.1016 16.3662 27.5496L16.4695 27.7627C17.1333 29.1311 18.5205 30 20.0414 30H28.2623C29.5656 30 30.7785 29.3342 31.4783 28.2347C32.4661 26.6826 32.2045 24.6465 30.8564 23.3945L30.8125 23.3538C30.5689 23.1275 30.3582 22.8738 30.1831 22.5999M20.1831 30L20.5831 30.6857C22.3831 33.7714 25.9831 33.7714 27.7831 30.6857L28.1831 30" stroke="#263238" stroke-width="1.5" stroke-linecap="round"/>
<path d="M31.1836 19C31.1836 20.1046 30.2882 21 29.1836 21C28.079 21 27.1836 20.1046 27.1836 19C27.1836 17.8954 28.079 17 29.1836 17C30.2882 17 31.1836 17.8954 31.1836 19Z" fill="#263238"/>
</svg>
