<svg width="48" height="49" viewBox="0 0 48 49" fill="none" xmlns="http://www.w3.org/2000/svg">
<rect y="0.5" width="48" height="48" rx="16" fill="#B7D1DE"/>
<path fill-rule="evenodd" clip-rule="evenodd" d="M29.4635 14.3737C28.3214 14.25 26.8818 14.25 25.0452 14.25H22.9548C21.1182 14.25 19.6786 14.25 18.5365 14.3737C17.3709 14.5 16.4266 14.7623 15.6202 15.3482C15.1321 15.7028 14.7028 16.1321 14.3482 16.6202C14.1865 16.8428 14.048 17.0778 13.9299 17.328C13.5681 18.094 13.4067 18.9824 13.3281 20.0417C13.25 21.0932 13.25 22.3822 13.25 23.9716V24.0452C13.25 25.8818 13.25 27.3214 13.3737 28.4635C13.5 29.6291 13.7623 30.5734 14.3482 31.3798C14.7028 31.8679 15.1321 32.2972 15.6202 32.6518C16.4266 33.2377 17.3709 33.5 18.5365 33.6263C19.6786 33.75 21.1182 33.75 22.9547 33.75H25.0453C26.8818 33.75 28.3214 33.75 29.4635 33.6263C30.6291 33.5 31.5734 33.2377 32.3798 32.6518C32.8679 32.2972 33.2972 31.8679 33.6518 31.3798C34.2377 30.5734 34.5 29.6291 34.6263 28.4635C34.75 27.3214 34.75 25.8818 34.75 24.0453V23.9709C34.75 22.3707 34.75 21.0749 34.6702 20.019C34.5899 18.9551 34.4248 18.0638 34.0546 17.2955C33.9399 17.0573 33.8065 16.833 33.6518 16.6202C33.2972 16.1321 32.8679 15.7028 32.3798 15.3482C31.5734 14.7623 30.6291 14.5 29.4635 14.3737ZM16.5019 16.5617C17.0099 16.1926 17.6601 15.9775 18.698 15.865C19.75 15.751 21.1084 15.75 23 15.75H25C26.8916 15.75 28.25 15.751 29.302 15.865C30.3399 15.9775 30.9901 16.1926 31.4981 16.5617C31.8587 16.8237 32.1759 17.1408 32.4379 17.5014L30.5407 19.3986C28.8591 21.0803 27.6501 22.287 26.6072 23.0827C25.5817 23.8651 24.8056 24.1789 24 24.1789C23.1944 24.1789 22.4183 23.8651 21.3928 23.0827C20.3499 22.287 19.1409 21.0803 17.4593 19.3986L15.5621 17.5014C15.8241 17.1408 16.1413 16.8237 16.5019 16.5617ZM33.0373 19.0234C33.0977 19.3436 33.1425 19.7089 33.1745 20.132C33.2495 21.1249 33.25 22.3648 33.25 24C33.25 25.8916 33.249 27.25 33.135 28.302C33.0225 29.3399 32.8074 29.9901 32.4383 30.4981C32.1762 30.8589 31.8589 31.1762 31.4981 31.4383C30.9901 31.8074 30.3399 32.0225 29.302 32.135C28.25 32.249 26.8916 32.25 25 32.25H23C21.1084 32.25 19.75 32.249 18.698 32.135C17.6601 32.0225 17.0099 31.8074 16.5019 31.4383C16.1411 31.1762 15.8238 30.8589 15.5617 30.4981C15.1926 29.9901 14.9775 29.3399 14.865 28.302C14.751 27.25 14.75 25.8916 14.75 24C14.75 22.3764 14.7505 21.1424 14.8239 20.1527C14.856 19.7208 14.9013 19.3489 14.9627 19.0234L16.4392 20.4998C18.0714 22.1321 19.3506 23.4113 20.4829 24.2752C21.6418 25.1594 22.7345 25.6789 24 25.6789C25.2655 25.6789 26.3582 25.1594 27.5171 24.2752C28.6494 23.4113 29.9285 22.1321 31.5608 20.4999L33.0373 19.0234Z" fill="#2D264B"/>
</svg>
