<svg width="101" height="82" viewBox="0 0 101 82" fill="none" xmlns="http://www.w3.org/2000/svg">
<path d="M76.6205 46.8018C79.8214 27.3624 66.6736 9.00607 47.254 5.80183C27.8344 2.59759 9.49683 15.7588 6.29586 35.1983C3.0949 54.6377 16.2427 72.994 35.6623 76.1983C55.0819 79.4025 73.4195 66.2413 76.6205 46.8018Z" fill="#F6F9F6"/>
<path d="M81.9889 60.4827C81.5918 60.6084 81.2014 60.7547 80.8194 60.9208C79.8105 61.415 78.9761 62.2055 78.4275 63.1867C78.0533 63.863 77.8318 64.6133 77.7786 65.3846C77.7347 66.266 77.9442 67.1415 78.3822 67.9074C78.8456 68.8152 79.5755 69.5592 80.4737 70.0395C81.372 70.5198 82.3956 70.7133 83.407 70.594C84.4184 70.4748 85.3691 70.0485 86.1313 69.3724C86.8934 68.6963 87.4306 67.8029 87.6706 66.8122C87.9224 65.967 87.9224 65.0666 87.6706 64.2215C87.4404 63.4839 87.0515 62.8059 86.5312 62.235C85.7755 61.3904 84.7762 60.8018 83.6715 60.5507C83.2623 60.4753 82.8492 60.4223 82.4341 60.3921C82.4341 60.3921 82.5397 60.3921 82.7586 60.3467C82.8916 60.3349 83.0254 60.3349 83.1585 60.3467C83.341 60.3506 83.5228 60.3708 83.7017 60.4072C84.6811 60.5912 85.5937 61.0333 86.3457 61.6878C87.0977 62.3423 87.6618 63.1856 87.98 64.1308C88.2524 65.0399 88.2524 66.0089 87.98 66.9179C87.7011 67.9259 87.1472 68.8361 86.3803 69.5464C85.5844 70.351 84.5407 70.8632 83.4179 71.0003C82.295 71.1374 81.1589 70.8912 80.1931 70.3017C79.2839 69.7847 78.5346 69.0268 78.0276 68.1113C77.5678 67.2823 77.3556 66.3385 77.4164 65.3922C77.5083 64.3985 77.8629 63.4472 78.4438 62.6362C79.0246 61.8251 79.8107 61.1835 80.7213 60.7773C80.8852 60.6982 81.0573 60.6374 81.2344 60.596C81.3581 60.549 81.4875 60.5186 81.6192 60.5054C81.8757 60.4751 81.9889 60.4676 81.9889 60.4827Z" fill="#263238"/>
<path d="M96.7388 69.1445C96.4944 69.2171 96.255 69.3054 96.022 69.4088C95.4023 69.7246 94.8941 70.2228 94.5657 70.8364C94.3401 71.2484 94.2062 71.7045 94.1734 72.1733C94.1457 72.7013 94.2715 73.226 94.5356 73.6839C94.8392 74.219 95.2882 74.657 95.8304 74.9471C96.3726 75.2372 96.9858 75.3675 97.599 75.3229C98.207 75.2262 98.7746 74.9571 99.2346 74.5475C99.6946 74.1378 100.028 73.6049 100.195 73.0117C100.349 72.4968 100.349 71.9479 100.195 71.4331C100.056 70.9835 99.8189 70.5706 99.5004 70.2246C99.0396 69.7098 98.4306 69.3509 97.7574 69.1974C97.2821 69.0916 97.0029 69.1294 97.0029 69.0992C97.0704 69.0893 97.1391 69.0893 97.2066 69.0992C97.2869 69.0909 97.3678 69.0909 97.4481 69.0992C97.5587 69.0934 97.6695 69.0934 97.7801 69.0992C98.4862 69.2256 99.1323 69.5781 99.6211 70.1037C99.9705 70.4601 100.229 70.8953 100.376 71.3726C100.542 71.9243 100.542 72.5129 100.376 73.0645C100.208 73.6792 99.8706 74.2342 99.4023 74.6658C98.9196 75.1615 98.2815 75.4762 97.5948 75.5573C96.9081 75.6384 96.2143 75.481 95.6296 75.1114C95.0787 74.797 94.6245 74.3372 94.3167 73.7821C94.0343 73.2789 93.9057 72.7037 93.947 72.1279C93.9858 71.6293 94.1381 71.1462 94.3922 70.7155C94.7481 70.0911 95.2959 69.5984 95.9541 69.3106C96.0569 69.2653 96.1628 69.2274 96.271 69.1974C96.3468 69.1714 96.4253 69.1536 96.5049 69.1445C96.6634 69.1369 96.7313 69.1294 96.7388 69.1445Z" fill="#263238"/>
<path d="M77.4483 41.8333C77.4483 41.8333 77.4483 41.637 77.4106 41.2518C77.3729 40.8666 77.4106 40.285 77.3427 39.5448C77.3427 39.1671 77.3427 38.7441 77.2974 38.2834C77.2521 37.8227 77.1692 37.3242 77.1012 36.7728C77.0333 36.2214 76.9503 35.6398 76.8598 35.0129C76.8243 34.689 76.7638 34.3682 76.6787 34.0537C76.5957 33.7289 76.5202 33.389 76.4372 33.0416C75.6748 29.661 74.4026 26.4163 72.6646 23.4189C70.389 19.4288 67.3689 15.9134 63.7686 13.0637L62.2595 11.8778C61.7162 11.5077 61.1503 11.1754 60.592 10.8129L59.7469 10.2766C59.4676 10.085 59.1751 9.91332 58.8716 9.76299L57.0306 8.83396C56.7212 8.6829 56.4118 8.51673 56.0949 8.36567L55.1065 7.98801L53.1145 7.23271C52.4354 6.99101 51.7186 6.83239 51.0169 6.62846L49.9455 6.33389C49.7719 6.28102 49.5908 6.22815 49.4097 6.19038L48.8589 6.09219C47.366 5.78264 45.8532 5.57821 44.3317 5.48039C43.5772 5.43507 42.8226 5.34444 42.0002 5.34444L39.631 5.41242C39.2386 5.41242 38.8387 5.41242 38.4388 5.46529L37.2391 5.63145C36.4468 5.74475 35.6319 5.82028 34.8321 5.97134C33.2137 6.29759 31.6182 6.72903 30.0559 7.26292L28.8637 7.67078L28.2601 7.88227L27.6866 8.14663L25.3476 9.21916C24.593 9.61192 23.8385 10.0727 23.084 10.5032C22.7142 10.7298 22.3294 10.9262 21.9672 11.183L20.8958 11.9383C19.4508 12.9733 18.0723 14.0984 16.7685 15.3069C16.1548 15.9615 15.5361 16.6187 14.9123 17.2783L14.4445 17.7692C14.3012 17.943 14.1653 18.1318 14.0295 18.3055L13.1844 19.3856L12.3243 20.4808L11.5697 21.644L10.8152 22.8147L10.4379 23.4038C10.3247 23.6002 10.2267 23.8117 10.121 24.0232C9.69848 24.8465 9.27594 25.6849 8.8534 26.5233C8.43086 27.3617 8.17432 28.268 7.83478 29.1517C6.5849 32.7779 5.88793 36.5718 5.76735 40.4058C5.73182 44.2422 6.27621 48.062 7.38205 51.7354C7.69141 52.6342 7.99323 53.5255 8.30259 54.4092C8.61195 55.2929 9.05712 56.1087 9.46457 56.9546L9.75884 57.5891L10.1059 58.1933L10.8001 59.3942L11.4943 60.5801L12.2941 61.6979L13.0939 62.8158L13.4938 63.3672L13.939 63.8808L15.7197 65.9201C16.9675 67.1836 18.2984 68.362 19.7036 69.4474L20.7449 70.2631C21.0844 70.535 21.4994 70.739 21.839 71.0184C22.5935 71.4792 23.2877 71.9701 24.0347 72.3931L26.2983 73.5563L26.8717 73.8433C27.0604 73.9264 27.2641 74.0019 27.4603 74.0774L28.6374 74.5382C30.182 75.1452 31.765 75.6498 33.3758 76.0488C34.1757 76.23 34.983 76.3358 35.7753 76.4868L36.9674 76.6908C37.3598 76.7512 37.722 76.7588 38.1596 76.7965L40.5213 76.9627C41.2758 76.9627 42.0832 76.9627 42.8528 76.9174C44.3698 76.8746 45.8822 76.7307 47.38 76.4868L47.9384 76.4113C48.1195 76.4113 48.3006 76.3282 48.4817 76.2905L49.5531 76.0337C50.3076 75.8524 50.9867 75.724 51.6734 75.5125L53.7031 74.8176L54.699 74.4702L55.6573 74.0472L57.5286 73.1862C57.8384 73.0513 58.1385 72.8948 58.4265 72.7179L59.2942 72.2118C59.8676 71.8719 60.4486 71.5547 60.9994 71.2148L62.5689 70.0894C66.2814 67.3887 69.4378 63.9957 71.8648 60.0967C72.1364 59.6737 72.4156 59.2583 72.6646 58.8353L73.3135 57.5588C73.5323 57.1359 73.736 56.728 73.9397 56.3201C74.0454 56.1238 74.151 55.9274 74.2415 55.7235L74.483 55.1117L75.3884 52.7929C75.6525 52.0376 75.8185 51.2822 76.0222 50.6327L76.309 49.6281C76.4104 49.3181 76.4837 48.9996 76.5278 48.6764C76.641 48.0571 76.7466 47.4755 76.8372 46.9317C76.9277 46.3878 77.0409 45.8969 77.0937 45.4211C77.1465 44.9452 77.1616 44.5373 77.1918 44.1672C77.2521 43.4119 77.2974 42.853 77.3276 42.4603C77.3578 42.0675 77.388 41.8787 77.388 41.8787C77.388 41.8787 77.388 42.075 77.388 42.4603C77.388 42.8455 77.3352 43.427 77.2899 44.1672C77.2899 44.5449 77.2371 44.9679 77.2069 45.4286C77.1767 45.8893 77.056 46.3878 76.9654 46.9392C76.8749 47.4906 76.7768 48.0722 76.6712 48.6915C76.6252 49.0162 76.5546 49.3369 76.4599 49.6508C76.3693 49.9756 76.2788 50.3154 76.1807 50.6553C75.977 51.3427 75.8185 52.0829 75.5544 52.8306C75.2904 53.5784 74.9659 54.3412 74.6565 55.1645L74.4226 55.7839C74.3321 55.9878 74.2189 56.1842 74.1208 56.3881C73.9171 56.7884 73.7134 57.2039 73.5021 57.6268C73.2908 58.0498 73.072 58.4803 72.8532 58.9184C72.6344 59.3565 72.325 59.7568 72.0534 60.1873C69.6286 64.1206 66.4639 67.5452 62.7349 70.2707L61.1579 71.4036C60.6071 71.7586 60.0261 72.0759 59.4451 72.4157L58.5774 72.9294C58.2877 73.1102 57.9851 73.2692 57.6719 73.4052L55.7856 74.2738C55.4687 74.4173 55.1518 74.5684 54.8273 74.7043L53.8238 75.0518L51.779 75.7618C51.0848 75.9732 50.368 76.1092 49.6437 76.2905L48.5647 76.5473L48.0139 76.6757L47.4555 76.7512C45.9578 76.9985 44.4454 77.1474 42.9283 77.1968C42.1737 77.1968 41.3664 77.2724 40.5741 77.2422L38.1898 77.076C37.7899 77.076 37.39 77.0382 36.9901 76.9778L35.7904 76.7739C34.9905 76.6228 34.1756 76.5171 33.3683 76.3358C31.7426 75.9369 30.1446 75.4323 28.5845 74.8252L27.3999 74.3644L26.8038 74.1303L26.2304 73.8357L23.9215 72.665C23.167 72.242 22.4124 71.7435 21.6579 71.2828C21.2957 71.0411 20.9034 70.8296 20.5563 70.5275L19.515 69.7118C18.0929 68.616 16.7468 67.4249 15.4858 66.1467L13.69 64.0923L13.2373 63.5786L12.8374 63.0197L12.03 61.8943L11.2226 60.7689L10.5209 59.568L9.81921 58.3595L9.46457 57.7477L9.1703 57.1132L8.02341 54.5225L7.09533 51.8261C5.98274 48.12 5.43085 44.268 5.45799 40.3983C5.58912 36.5388 6.29352 32.7204 7.54805 29.0686L8.58177 26.4175L9.86448 23.8948C9.97011 23.6833 10.0682 23.4718 10.1814 23.2679L10.5587 22.6787L11.3132 21.4929L12.0677 20.3222L12.9204 19.227L13.7654 18.1393C13.9088 17.9581 14.0446 17.7768 14.1955 17.5955L14.6633 17.097L16.5421 15.1181C17.8531 13.8933 19.2445 12.7578 20.7072 11.7192L21.7862 10.9639C22.1408 10.6996 22.5407 10.5107 22.9104 10.2766C23.665 9.84607 24.4195 9.38533 25.174 8.98502L27.5282 7.90493L28.1092 7.64057L28.7128 7.42909L29.9201 7.01367C31.5023 6.47363 33.1179 6.03715 34.7566 5.70698C35.5715 5.55592 36.3864 5.48039 37.1938 5.3671L38.4011 5.20848C38.801 5.16316 39.2009 5.20848 39.6008 5.15561L41.9926 5.08008C42.7472 5.08008 43.5621 5.17827 44.3393 5.22359C45.8605 5.33184 47.373 5.54127 48.8665 5.85049L49.4173 5.94868C49.5984 5.94868 49.7795 6.04687 49.9606 6.09219L51.032 6.39431C51.7413 6.6058 52.4581 6.77197 53.1447 7.01367L55.1593 7.76897L56.1478 8.15418C56.4647 8.30524 56.774 8.47141 57.0909 8.63002L58.9395 9.56661C59.2446 9.71859 59.5394 9.89015 59.8223 10.0802L60.675 10.624C61.2333 10.9866 61.8068 11.334 62.3425 11.7041L63.8516 12.9051C67.4839 15.7675 70.5279 19.3071 72.8155 23.3283C74.5614 26.3461 75.8338 29.6144 76.5882 33.0189C76.6712 33.3663 76.7466 33.7062 76.8296 34.0386C76.9116 34.3535 76.9696 34.6741 77.0032 34.9978C77.0836 35.6323 77.1591 36.2214 77.2295 36.7652C77.2974 37.3091 77.3729 37.8151 77.4106 38.2758C77.4483 38.7366 77.4106 39.1596 77.4106 39.5372C77.4106 40.2925 77.4106 40.859 77.4483 41.2518V41.8333Z" fill="#263238"/>
<path d="M52.4954 49.569L50.9109 47.7412C49.9972 46.6967 49.4978 45.353 49.5075 43.9647V37.9071C49.5075 35.989 48.8234 34.1339 47.5785 32.6758C46.3335 31.2177 44.6094 30.2524 42.7166 29.9537V27.5896C42.7176 27.4471 42.6905 27.3059 42.6367 27.1739C42.5829 27.042 42.5036 26.9221 42.4033 26.821C42.303 26.7199 42.1837 26.6396 42.0523 26.5849C41.9209 26.5301 41.78 26.5019 41.6377 26.502C41.3501 26.5039 41.0749 26.6192 40.8716 26.8227C40.6682 27.0262 40.5531 27.3017 40.5511 27.5896V29.9084C38.5882 30.1327 36.7761 31.0716 35.4599 32.5466C34.1437 34.0215 33.4153 35.9294 33.4132 37.9071V43.7683C33.4155 45.0449 32.9875 46.285 32.1984 47.288L30.4102 49.5539H38.6044C38.7993 50.0736 39.1186 50.5375 39.5343 50.9049C39.9501 51.2722 40.4495 51.5318 40.9889 51.6608C41.5282 51.7898 42.091 51.7843 42.6277 51.6448C43.1644 51.5053 43.6588 51.236 44.0673 50.8606C44.4584 50.5007 44.7584 50.0528 44.9425 49.5539L52.4954 49.569Z" fill="#B9E8D0"/>
</svg>
